<svg width="29" height="26" viewBox="0 0 29 26" fill="none" xmlns="http://www.w3.org/2000/svg">
<path d="M13.721 1.2822C14.0092 0.660492 14.9909 0.660492 15.2791 1.2822L18.468 8.16091C18.5896 8.423 18.8643 8.60208 19.1797 8.62477L27.457 9.22012C28.2052 9.27393 28.5085 10.1115 27.9385 10.5496L21.632 15.3962C21.3917 15.5809 21.2868 15.8706 21.3602 16.1467L23.287 23.3934C23.4611 24.0484 22.6669 24.566 22.0264 24.2151L14.9398 20.3317C14.6698 20.1838 14.3302 20.1838 14.0602 20.3317L6.97364 24.2151C6.33315 24.566 5.53897 24.0484 5.71311 23.3934L7.63984 16.1467C7.71325 15.8706 7.60832 15.5809 7.36803 15.3962L1.06154 10.5496C0.491556 10.1115 0.794905 9.27393 1.54302 9.22012L9.82039 8.62477C10.1358 8.60208 10.4105 8.423 10.532 8.16091L13.721 1.2822Z" stroke="#0F172A" stroke-width="1.5" stroke-linecap="round" stroke-linejoin="round"/>
</svg>
