<svg width="27" height="27" viewBox="0 0 27 27" fill="none" xmlns="http://www.w3.org/2000/svg">
<path d="M18.5434 4.93099C22.8642 6.66306 25.8751 10.5523 25.8751 15.0726C25.8751 21.2043 20.3347 26.175 13.5001 26.175C6.6656 26.175 1.12512 21.2043 1.12512 15.0726C1.12512 12.0957 2.431 9.39251 4.55684 7.39887C5.70658 8.83937 7.23085 10.0229 9.00194 10.8348C9.0696 7.09946 11.0221 3.77522 14.0433 1.59424C15.1884 2.97195 16.7069 4.12972 18.5434 4.93099Z" stroke="#0F172A" stroke-width="1.5" stroke-linecap="round" stroke-linejoin="round"/>
<path d="M13.5001 22.1383C16.6067 22.1383 19.1251 19.8788 19.1251 17.0917C19.1251 14.5304 16.9982 12.4147 14.2425 12.0887C12.73 13.306 11.6794 14.976 11.3556 16.8611C10.1817 16.6036 9.09806 16.1396 8.15536 15.5143C7.9735 16.0106 7.87512 16.5409 7.87512 17.0917C7.87512 19.8788 10.3935 22.1383 13.5001 22.1383Z" stroke="#0F172A" stroke-width="1.5" stroke-linecap="round" stroke-linejoin="round"/>
</svg>
